<svg width="12" height="12" viewBox="0 0 12 12" fill="none" xmlns="http://www.w3.org/2000/svg">
<path d="M1.75 0.5C1.41929 0.502614 1.10286 0.63515 0.869006 0.869006C0.63515 1.10286 0.502614 1.41929 0.5 1.75V10.25C0.5 10.9335 1.0665 11.5 1.75 11.5H10.25C10.9335 11.5 11.5 10.9335 11.5 10.25V1.75C11.5 1.0665 10.9335 0.5 10.25 0.5H1.75ZM1.75 1.5H10.25C10.3925 1.5 10.5 1.6075 10.5 1.75V10.25C10.5007 10.283 10.4947 10.3158 10.4824 10.3465C10.47 10.3771 10.4516 10.4049 10.4283 10.4283C10.4049 10.4516 10.3771 10.47 10.3465 10.4824C10.3158 10.4947 10.283 10.5007 10.25 10.5H1.75C1.71698 10.5007 1.68417 10.4947 1.65353 10.4824C1.62289 10.47 1.59506 10.4516 1.57171 10.4283C1.54836 10.4049 1.52997 10.3771 1.51764 10.3465C1.50532 10.3158 1.49932 10.283 1.5 10.25V1.75C1.5 1.6075 1.6075 1.5 1.75 1.5ZM3.219 2.3595C3.10442 2.35674 2.99044 2.37692 2.88377 2.41886C2.77711 2.46079 2.6799 2.52364 2.59789 2.60371C2.51587 2.68377 2.45069 2.77943 2.40619 2.88505C2.36169 2.99068 2.33877 3.10413 2.33877 3.21875C2.33877 3.33337 2.36169 3.44682 2.40619 3.55245C2.45069 3.65807 2.51587 3.75373 2.59789 3.83379C2.6799 3.91386 2.77711 3.97671 2.88377 4.01864C2.99044 4.06058 3.10442 4.08076 3.219 4.078C3.4433 4.07259 3.65659 3.97969 3.81331 3.81913C3.97004 3.65858 4.05777 3.44311 4.05777 3.21875C4.05777 2.99439 3.97004 2.77892 3.81331 2.61837C3.65659 2.45781 3.4433 2.36491 3.219 2.3595ZM7.734 4.6405C7.0175 4.6405 6.541 5.033 6.344 5.406H6.3125V4.75H4.906V9.5H6.375V7.156C6.375 6.537 6.498 5.9375 7.2655 5.9375C8.0215 5.9375 8.0315 6.6365 8.0315 7.1875V9.5H9.5V6.8905C9.5 5.6135 9.228 4.6405 7.734 4.6405ZM2.5 4.75V9.5H3.9845V4.75H2.5Z" fill="#CCCCCC"/>
</svg>
