<svg width="33" height="33" viewBox="0 0 33 33" fill="none" xmlns="http://www.w3.org/2000/svg">
<path d="M10.8 9.4499C10.442 9.4499 10.0986 9.59213 9.8454 9.84531C9.59223 10.0985 9.44999 10.4419 9.44999 10.7999V21.5999C9.44999 21.9579 9.59223 22.3013 9.8454 22.5545C10.0986 22.8077 10.442 22.9499 10.8 22.9499H21.6C21.958 22.9499 22.3014 22.8077 22.5546 22.5545C22.8078 22.3013 22.95 21.9579 22.95 21.5999V20.9249C22.95 20.3878 23.1633 19.8728 23.5431 19.493C23.9229 19.1132 24.4379 18.8999 24.975 18.8999C25.5121 18.8999 26.0271 19.1132 26.4069 19.493C26.7866 19.8728 27 20.3878 27 20.9249V21.5999C27 23.0321 26.4311 24.4056 25.4184 25.4183C24.4057 26.431 23.0322 26.9999 21.6 26.9999H10.8C9.36782 26.9999 7.99431 26.431 6.98162 25.4183C5.96892 24.4056 5.39999 23.0321 5.39999 21.5999V10.7999C5.39999 9.36773 5.96892 7.99422 6.98162 6.98153C7.99431 5.96883 9.36782 5.3999 10.8 5.3999H11.475C12.0121 5.3999 12.5271 5.61325 12.9069 5.99301C13.2866 6.37277 13.5 6.88784 13.5 7.4249C13.5 7.96197 13.2866 8.47703 12.9069 8.85679C12.5271 9.23656 12.0121 9.4499 11.475 9.4499H10.8ZM18.225 9.4499C17.6879 9.4499 17.1729 9.23656 16.7931 8.85679C16.4133 8.47703 16.2 7.96197 16.2 7.4249C16.2 6.88784 16.4133 6.37277 16.7931 5.99301C17.1729 5.61325 17.6879 5.3999 18.225 5.3999H24.975C25.5121 5.3999 26.0271 5.61325 26.4069 5.99301C26.7866 6.37277 27 6.88784 27 7.4249V14.1749C27 14.712 26.7866 15.227 26.4069 15.6068C26.0271 15.9866 25.5121 16.1999 24.975 16.1999C24.4379 16.1999 23.9229 15.9866 23.5431 15.6068C23.1633 15.227 22.95 14.712 22.95 14.1749V12.3119L19.656 15.6059C19.2721 15.9636 18.7644 16.1583 18.2398 16.1491C17.7152 16.1398 17.2146 15.9273 16.8436 15.5563C16.4726 15.1853 16.2601 14.6847 16.2508 14.1601C16.2416 13.6355 16.4363 13.1278 16.794 12.7439L20.088 9.4499H18.225Z" fill="white"/>
</svg>
