<svg width="110" height="133" viewBox="0 0 110 133" fill="none" xmlns="http://www.w3.org/2000/svg">
<path d="M0 0H110V133L55.5 98L0 133V0Z" fill="url(#paint0_linear_220_7)"/>
<path d="M22.4176 57V34.504H26.7056V57H22.4176ZM18.0016 38.28V34.504H26.3856V38.28H18.0016Z" fill="white"/>
<path d="M39.6396 57.32C37.869 57.32 36.269 56.84 34.8396 55.88C33.4103 54.92 32.269 53.5653 31.4156 51.816C30.5836 50.0667 30.1676 48.0293 30.1676 45.704C30.1676 43.3787 30.5836 41.352 31.4156 39.624C32.2476 37.896 33.3676 36.552 34.7756 35.592C36.205 34.632 37.7943 34.152 39.5436 34.152C41.3356 34.152 42.9356 34.632 44.3436 35.592C45.773 36.552 46.9036 37.9067 47.7356 39.656C48.5676 41.384 48.9836 43.4213 48.9836 45.768C48.9836 48.0933 48.5676 50.1307 47.7356 51.88C46.9036 53.608 45.7836 54.952 44.3756 55.912C42.9676 56.8507 41.389 57.32 39.6396 57.32ZM39.5756 53.384C40.5996 53.384 41.485 53.096 42.2316 52.52C42.9783 51.944 43.5543 51.0907 43.9596 49.96C44.3863 48.8293 44.5996 47.4213 44.5996 45.736C44.5996 44.0507 44.3863 42.6427 43.9596 41.512C43.5543 40.3813 42.9676 39.5387 42.1996 38.984C41.453 38.408 40.5676 38.12 39.5436 38.12C38.541 38.12 37.6663 38.408 36.9196 38.984C36.173 39.5387 35.5863 40.3813 35.1596 41.512C34.7543 42.6213 34.5516 44.0187 34.5516 45.704C34.5516 47.4107 34.7543 48.8293 35.1596 49.96C35.5863 51.0907 36.173 51.944 36.9196 52.52C37.6663 53.096 38.5516 53.384 39.5756 53.384Z" fill="white"/>
<path d="M60.7646 57.32C58.994 57.32 57.394 56.84 55.9646 55.88C54.5353 54.92 53.394 53.5653 52.5406 51.816C51.7086 50.0667 51.2926 48.0293 51.2926 45.704C51.2926 43.3787 51.7086 41.352 52.5406 39.624C53.3726 37.896 54.4926 36.552 55.9006 35.592C57.33 34.632 58.9193 34.152 60.6686 34.152C62.4606 34.152 64.0606 34.632 65.4686 35.592C66.898 36.552 68.0286 37.9067 68.8606 39.656C69.6926 41.384 70.1086 43.4213 70.1086 45.768C70.1086 48.0933 69.6926 50.1307 68.8606 51.88C68.0286 53.608 66.9086 54.952 65.5006 55.912C64.0926 56.8507 62.514 57.32 60.7646 57.32ZM60.7006 53.384C61.7246 53.384 62.61 53.096 63.3566 52.52C64.1033 51.944 64.6793 51.0907 65.0846 49.96C65.5113 48.8293 65.7246 47.4213 65.7246 45.736C65.7246 44.0507 65.5113 42.6427 65.0846 41.512C64.6793 40.3813 64.0926 39.5387 63.3246 38.984C62.578 38.408 61.6926 38.12 60.6686 38.12C59.666 38.12 58.7913 38.408 58.0446 38.984C57.298 39.5387 56.7113 40.3813 56.2846 41.512C55.8793 42.6213 55.6766 44.0187 55.6766 45.704C55.6766 47.4107 55.8793 48.8293 56.2846 49.96C56.7113 51.0907 57.298 51.944 58.0446 52.52C58.7913 53.096 59.6766 53.384 60.7006 53.384Z" fill="white"/>
<path d="M73.0576 57L87.0096 34.504H90.9776L77.0256 57H73.0576ZM86.9136 57.32C86.0603 57.32 85.2816 57.1173 84.5776 56.712C83.8736 56.2853 83.3083 55.7307 82.8816 55.048C82.4763 54.344 82.2736 53.5547 82.2736 52.68C82.2736 51.8053 82.4763 51.0267 82.8816 50.344C83.3083 49.6613 83.863 49.1173 84.5456 48.712C85.2496 48.2853 86.039 48.072 86.9136 48.072C87.7883 48.072 88.5776 48.2853 89.2816 48.712C89.9856 49.1173 90.5403 49.6613 90.9456 50.344C91.3723 51.0267 91.5856 51.8053 91.5856 52.68C91.5856 53.5547 91.3723 54.344 90.9456 55.048C90.5403 55.7307 89.9856 56.2853 89.2816 56.712C88.599 57.1173 87.8096 57.32 86.9136 57.32ZM86.9136 54.28C87.383 54.28 87.767 54.1307 88.0656 53.832C88.3643 53.5333 88.5136 53.1493 88.5136 52.68C88.5136 52.232 88.3536 51.8587 88.0336 51.56C87.735 51.2613 87.3616 51.112 86.9136 51.112C86.4656 51.112 86.0923 51.2613 85.7936 51.56C85.5163 51.8587 85.3776 52.232 85.3776 52.68C85.3776 53.1493 85.5163 53.5333 85.7936 53.832C86.0923 54.1307 86.4656 54.28 86.9136 54.28ZM77.0576 43.432C76.2256 43.432 75.447 43.2293 74.7216 42.824C74.0176 42.3973 73.463 41.832 73.0576 41.128C72.6523 40.424 72.4496 39.6453 72.4496 38.792C72.4496 37.9173 72.6523 37.1387 73.0576 36.456C73.463 35.7733 74.0176 35.2293 74.7216 34.824C75.4256 34.3973 76.2043 34.184 77.0576 34.184C77.9323 34.184 78.7216 34.3973 79.4256 34.824C80.151 35.2293 80.7163 35.7733 81.1216 36.456C81.527 37.1387 81.7296 37.9173 81.7296 38.792C81.7296 39.6453 81.5163 40.424 81.0896 41.128C80.6843 41.832 80.1296 42.3973 79.4256 42.824C78.743 43.2293 77.9536 43.432 77.0576 43.432ZM77.0576 40.392C77.5483 40.392 77.9323 40.2427 78.2096 39.944C78.487 39.6453 78.6256 39.2613 78.6256 38.792C78.6256 38.3227 78.4763 37.9387 78.1776 37.64C77.9003 37.3413 77.527 37.192 77.0576 37.192C76.6096 37.192 76.247 37.3413 75.9696 37.64C75.6923 37.9387 75.5536 38.3227 75.5536 38.792C75.5536 39.2613 75.6923 39.6453 75.9696 39.944C76.247 40.2427 76.6096 40.392 77.0576 40.392Z" fill="white"/>
<path d="M24.2773 75L19.9173 65.5H21.9173L25.4173 73.52H24.2573L27.7773 65.5H29.6973L25.3373 75H24.2773Z" fill="white"/>
<path d="M35.261 75.2C34.3144 75.2 33.461 74.9867 32.701 74.56C31.941 74.12 31.341 73.5267 30.901 72.78C30.461 72.0333 30.241 71.1867 30.241 70.24C30.241 69.3067 30.4543 68.4667 30.881 67.72C31.321 66.9733 31.9077 66.3867 32.641 65.96C33.3877 65.52 34.221 65.3 35.141 65.3C36.021 65.3 36.7944 65.5 37.461 65.9C38.141 66.3 38.6677 66.8533 39.041 67.56C39.4277 68.2667 39.621 69.0667 39.621 69.96C39.621 70.0933 39.6144 70.24 39.601 70.4C39.5877 70.5467 39.561 70.72 39.521 70.92H31.501V69.42H38.561L37.901 70C37.901 69.36 37.7877 68.82 37.561 68.38C37.3343 67.9267 37.0144 67.58 36.601 67.34C36.1877 67.0867 35.6877 66.96 35.101 66.96C34.4877 66.96 33.9477 67.0933 33.481 67.36C33.0143 67.6267 32.6543 68 32.401 68.48C32.1477 68.96 32.021 69.5267 32.021 70.18C32.021 70.8467 32.1543 71.4333 32.421 71.94C32.6877 72.4333 33.0677 72.82 33.561 73.1C34.0543 73.3667 34.621 73.5 35.261 73.5C35.7944 73.5 36.281 73.4067 36.721 73.22C37.1743 73.0333 37.561 72.7533 37.881 72.38L39.041 73.56C38.5877 74.0933 38.0277 74.5 37.361 74.78C36.7077 75.06 36.0077 75.2 35.261 75.2Z" fill="white"/>
<path d="M48.3037 75V69.46C48.3037 68.74 48.077 68.1467 47.6237 67.68C47.1703 67.2133 46.5837 66.98 45.8637 66.98C45.3837 66.98 44.957 67.0867 44.5837 67.3C44.2103 67.5133 43.917 67.8067 43.7037 68.18C43.4903 68.5533 43.3837 68.98 43.3837 69.46L42.6437 69.04C42.6437 68.32 42.8037 67.68 43.1237 67.12C43.4437 66.56 43.8903 66.12 44.4637 65.8C45.037 65.4667 45.6837 65.3 46.4037 65.3C47.1237 65.3 47.757 65.48 48.3037 65.84C48.8637 66.2 49.3037 66.6733 49.6237 67.26C49.9437 67.8333 50.1037 68.4467 50.1037 69.1V75H48.3037ZM41.5837 75V65.5H43.3837V75H41.5837Z" fill="white"/>
<path d="M56.5607 75.2C55.6807 75.2 54.894 74.9867 54.2007 74.56C53.5074 74.12 52.954 73.5267 52.5407 72.78C52.1407 72.0333 51.9407 71.1933 51.9407 70.26C51.9407 69.3267 52.1407 68.4867 52.5407 67.74C52.954 66.9933 53.5074 66.4 54.2007 65.96C54.894 65.52 55.6807 65.3 56.5607 65.3C57.2674 65.3 57.9074 65.4533 58.4807 65.76C59.054 66.0533 59.514 66.4667 59.8607 67C60.2207 67.52 60.4207 68.1267 60.4607 68.82V71.68C60.4207 72.36 60.2274 72.9667 59.8807 73.5C59.534 74.0333 59.074 74.4533 58.5007 74.76C57.9274 75.0533 57.2807 75.2 56.5607 75.2ZM56.8607 73.5C57.4607 73.5 57.9807 73.36 58.4207 73.08C58.874 72.8 59.2274 72.42 59.4807 71.94C59.734 71.4467 59.8607 70.8867 59.8607 70.26C59.8607 69.6067 59.7274 69.04 59.4607 68.56C59.2074 68.08 58.854 67.7 58.4007 67.42C57.9607 67.14 57.4407 67 56.8407 67C56.2407 67 55.714 67.14 55.2607 67.42C54.8074 67.7 54.4474 68.0867 54.1807 68.58C53.9274 69.06 53.8007 69.6133 53.8007 70.24C53.8007 70.88 53.9274 71.4467 54.1807 71.94C54.4474 72.42 54.8074 72.8 55.2607 73.08C55.7274 73.36 56.2607 73.5 56.8607 73.5ZM61.5607 75H59.7407V72.44L60.0807 70.12L59.7407 67.82V60.72H61.5607V75Z" fill="white"/>
<path d="M64.2013 75V65.5H66.0013V75H64.2013ZM65.1013 63.6C64.768 63.6 64.4947 63.4933 64.2813 63.28C64.068 63.0533 63.9613 62.7733 63.9613 62.44C63.9613 62.12 64.068 61.8533 64.2813 61.64C64.4947 61.4133 64.768 61.3 65.1013 61.3C65.4347 61.3 65.708 61.4133 65.9213 61.64C66.1347 61.8533 66.2413 62.12 66.2413 62.44C66.2413 62.7733 66.1347 63.0533 65.9213 63.28C65.708 63.4933 65.4347 63.6 65.1013 63.6Z" fill="white"/>
<path d="M72.674 75.2C71.794 75.2 71.0073 74.9867 70.314 74.56C69.6207 74.12 69.0673 73.5267 68.654 72.78C68.254 72.0333 68.054 71.1933 68.054 70.26C68.054 69.3267 68.254 68.4867 68.654 67.74C69.0673 66.9933 69.6207 66.4 70.314 65.96C71.0073 65.52 71.794 65.3 72.674 65.3C73.3807 65.3 74.0207 65.4533 74.594 65.76C75.1673 66.0533 75.6273 66.4667 75.974 67C76.334 67.52 76.534 68.1267 76.574 68.82V71.68C76.534 72.36 76.3407 72.9667 75.994 73.5C75.6473 74.0333 75.1873 74.4533 74.614 74.76C74.0406 75.0533 73.394 75.2 72.674 75.2ZM72.974 73.5C73.574 73.5 74.094 73.36 74.534 73.08C74.9873 72.8 75.3407 72.42 75.594 71.94C75.8473 71.4467 75.974 70.8867 75.974 70.26C75.974 69.6067 75.8406 69.04 75.574 68.56C75.3206 68.08 74.9673 67.7 74.514 67.42C74.074 67.14 73.554 67 72.954 67C72.354 67 71.8273 67.14 71.374 67.42C70.9207 67.7 70.5607 68.0867 70.294 68.58C70.0407 69.06 69.914 69.6133 69.914 70.24C69.914 70.88 70.0407 71.4467 70.294 71.94C70.5607 72.42 70.9207 72.8 71.374 73.08C71.8407 73.36 72.374 73.5 72.974 73.5ZM77.674 75H75.854V72.44L76.194 70.12L75.854 67.82V60.72H77.674V75Z" fill="white"/>
<path d="M84.6346 75.2C83.7013 75.2 82.8613 74.98 82.1146 74.54C81.3679 74.1 80.7746 73.5067 80.3346 72.76C79.8946 72 79.6746 71.1533 79.6746 70.22C79.6746 69.3 79.8946 68.4733 80.3346 67.74C80.7746 66.9933 81.3679 66.4 82.1146 65.96C82.8613 65.52 83.7013 65.3 84.6346 65.3C85.5546 65.3 86.3879 65.52 87.1346 65.96C87.8946 66.3867 88.4946 66.9733 88.9346 67.72C89.3746 68.4667 89.5946 69.3 89.5946 70.22C89.5946 71.1533 89.3746 72 88.9346 72.76C88.4946 73.5067 87.8946 74.1 87.1346 74.54C86.3879 74.98 85.5546 75.2 84.6346 75.2ZM84.6346 73.46C85.2346 73.46 85.7679 73.32 86.2346 73.04C86.7013 72.76 87.0679 72.38 87.3346 71.9C87.6013 71.4067 87.7346 70.8467 87.7346 70.22C87.7346 69.6067 87.5946 69.06 87.3146 68.58C87.0479 68.1 86.6813 67.7267 86.2146 67.46C85.7613 67.18 85.2346 67.04 84.6346 67.04C84.0346 67.04 83.5013 67.18 83.0346 67.46C82.5679 67.7267 82.2013 68.1 81.9346 68.58C81.6679 69.06 81.5346 69.6067 81.5346 70.22C81.5346 70.8467 81.6679 71.4067 81.9346 71.9C82.2013 72.38 82.5679 72.76 83.0346 73.04C83.5013 73.32 84.0346 73.46 84.6346 73.46Z" fill="white"/>
<defs>
<linearGradient id="paint0_linear_220_7" x1="0" y1="66.5" x2="110" y2="66.5" gradientUnits="userSpaceOnUse">
<stop stop-color="#003D6B"/>
<stop offset="1" stop-color="#0074CC"/>
</linearGradient>
</defs>
</svg>
