<svg width="48" height="48" viewBox="0 0 48 48" fill="none" xmlns="http://www.w3.org/2000/svg">
<path d="M45.48 14.72C45.48 14.02 44.92 13.48 44.24 13.48H3.78004C3.08004 13.48 2.54004 14.04 2.54004 14.72V16.72C2.54004 16.82 2.58004 16.9 2.60004 17C2.54004 17.2 2.52004 17.42 2.58004 17.64L6.88004 33.6C7.02004 34.14 7.52004 34.52 8.08004 34.52H40C40.56 34.52 41.06 34.14 41.2 33.58L45.42 17.62C45.48 17.4 45.46 17.2 45.4 16.98C45.42 16.88 45.46 16.8 45.46 16.7V14.72H45.48ZM39.04 32.02H9.04004L5.42004 18.56H42.6L39.04 32.02Z" fill="#26ACC4"/>
</svg>
