<svg width="48" height="48" viewBox="0 0 48 48" fill="none" xmlns="http://www.w3.org/2000/svg">
<path d="M14.858 6.72423C22.798 1.32823 34.272 4.24823 38.46 12.8362M21.714 43.8482C31.168 45.1642 40 37.7902 40 28.4202V20.6662M14.858 41.2122C10.712 38.3962 8 33.7162 8 28.4202V19.5162C8 17.1462 8.542 14.9002 9.514 12.8882" stroke="#26ACC4" stroke-width="3" stroke-linecap="round" stroke-linejoin="round"/>
<path d="M32 27.6C32 32.24 28.42 36 24 36C19.58 36 16 32.24 16 27.6V20.4C16 19.112 16.276 17.892 16.77 16.8M24 12C28.42 12 32 15.76 32 20.4M24 21V27" stroke="#26ACC4" stroke-width="3" stroke-linecap="round" stroke-linejoin="round"/>
</svg>
