<svg width="48" height="48" viewBox="0 0 48 48" fill="none" xmlns="http://www.w3.org/2000/svg">
<path d="M17 29L10 44M16 12C16 12 18 9.878 18 8C18 5.334 16 4 16 4M24 12C24 12 26 9.878 26 8C26 5.334 24 4 24 4M32 12C32 12 34 9.878 34 8C34 5.334 32 4 32 4" stroke="#26ACC4" stroke-width="3" stroke-linecap="round" stroke-linejoin="round"/>
<path d="M33 35H15" stroke="#26ACC4" stroke-width="3" stroke-linejoin="round"/>
<path d="M31 29L35.2 38M37 44C37.7956 44 38.5587 43.6839 39.1213 43.1213C39.6839 42.5587 40 41.7956 40 41C40 40.2044 39.6839 39.4413 39.1213 38.8787C38.5587 38.3161 37.7956 38 37 38C36.2044 38 35.4413 38.3161 34.8787 38.8787C34.3161 39.4413 34 40.2044 34 41C34 41.7956 34.3161 42.5587 34.8787 43.1213C35.4413 43.6839 36.2044 44 37 44Z" stroke="#26ACC4" stroke-width="3" stroke-linecap="round" stroke-linejoin="round"/>
<path d="M24.0003 29.9998C27.5059 30.0002 30.884 28.6854 33.467 26.3154C36.05 23.9453 37.6498 20.6925 37.9503 17.1998C37.9606 17.0438 37.9383 16.8874 37.8849 16.7404C37.8314 16.5935 37.7479 16.4593 37.6397 16.3464C37.5315 16.2335 37.401 16.1444 37.2565 16.0847C37.112 16.0251 36.9566 15.9961 36.8003 15.9998H11.2003C11.044 15.9961 10.8886 16.0251 10.7441 16.0847C10.5996 16.1444 10.4691 16.2335 10.3609 16.3464C10.2527 16.4593 10.1692 16.5935 10.1157 16.7404C10.0623 16.8874 10.04 17.0438 10.0503 17.1998C10.3508 20.6925 11.9506 23.9453 14.5336 26.3154C17.1166 28.6854 20.4947 30.0002 24.0003 29.9998Z" stroke="#26ACC4" stroke-width="3"/>
</svg>
