<svg width="64" height="64" viewBox="0 0 64 64" fill="none" xmlns="http://www.w3.org/2000/svg">
<path d="M5.33398 50.6663V34.6663C5.33398 33.4663 5.57843 32.3775 6.06732 31.3997C6.55621 30.4219 7.20065 29.5552 8.00065 28.7997V21.333C8.00065 19.1108 8.77843 17.2219 10.334 15.6663C11.8895 14.1108 13.7784 13.333 16.0007 13.333H26.6673C27.6895 13.333 28.6451 13.5223 29.534 13.901C30.4229 14.2797 31.2451 14.8015 32.0007 15.4663C32.7562 14.7997 33.5784 14.2779 34.4673 13.901C35.3562 13.5241 36.3118 13.3348 37.334 13.333H48.0007C50.2229 13.333 52.1118 14.1108 53.6673 15.6663C55.2229 17.2219 56.0007 19.1108 56.0007 21.333V28.7997C56.8007 29.5552 57.4451 30.4219 57.934 31.3997C58.4229 32.3775 58.6673 33.4663 58.6673 34.6663V50.6663H53.334V45.333H10.6673V50.6663H5.33398ZM34.6673 26.6663H50.6673V21.333C50.6673 20.5775 50.4113 19.9446 49.8993 19.4343C49.3873 18.9241 48.7544 18.6681 48.0007 18.6663H37.334C36.5784 18.6663 35.9455 18.9223 35.4353 19.4343C34.9251 19.9463 34.6691 20.5792 34.6673 21.333V26.6663ZM13.334 26.6663H29.334V21.333C29.334 20.5775 29.078 19.9446 28.566 19.4343C28.054 18.9241 27.4211 18.6681 26.6673 18.6663H16.0007C15.2451 18.6663 14.6122 18.9223 14.102 19.4343C13.5918 19.9463 13.3358 20.5792 13.334 21.333V26.6663ZM10.6673 39.9997H53.334V34.6663C53.334 33.9108 53.078 33.2779 52.566 32.7677C52.054 32.2575 51.4211 32.0015 50.6673 31.9997H13.334C12.5784 31.9997 11.9455 32.2557 11.4353 32.7677C10.9251 33.2797 10.6691 33.9126 10.6673 34.6663V39.9997Z" fill="#26ACC4"/>
</svg>
