<svg width="48" height="48" viewBox="0 0 48 48" fill="none" xmlns="http://www.w3.org/2000/svg">
<path d="M31.5281 8C32.6422 8.00004 33.7343 8.31027 34.6821 8.89594C35.6298 9.48161 36.3958 10.3196 36.8941 11.316L39.6601 16.846C40.1481 16.646 40.6341 16.444 41.1061 16.21C41.5809 15.9729 42.1304 15.9341 42.6337 16.1021C43.1371 16.2702 43.553 16.6313 43.7901 17.106C44.0272 17.5807 44.0661 18.1302 43.898 18.6336C43.73 19.1369 43.3689 19.5529 42.8941 19.79C41.9061 20.282 41.4541 20.434 41.4541 20.434L43.3661 24.26C43.7841 25.094 44.0001 26.012 44.0001 26.944V32C44.0001 32.8442 43.822 33.6788 43.4773 34.4494C43.1327 35.22 42.6293 35.9092 42.0001 36.472V39C42.0001 39.7956 41.6841 40.5587 41.1215 41.1213C40.5589 41.6839 39.7958 42 39.0001 42C38.2045 42 37.4414 41.6839 36.8788 41.1213C36.3162 40.5587 36.0001 39.7956 36.0001 39V38H12.0001V39C12.0001 39.7956 11.6841 40.5587 11.1215 41.1213C10.5589 41.6839 9.7958 42 9.00015 42C8.2045 42 7.44144 41.6839 6.87883 41.1213C6.31622 40.5587 6.00015 39.7956 6.00015 39V36.472C4.77215 35.372 4.00015 33.776 4.00015 32V26.944C4.00052 26.0129 4.21758 25.0947 4.63415 24.262L6.54615 20.434C6.06156 20.2335 5.58271 20.0194 5.11015 19.792C4.8744 19.675 4.66406 19.5127 4.49117 19.3143C4.31829 19.1159 4.18626 18.8853 4.10265 18.6358C4.01904 18.3863 3.9855 18.1227 4.00394 17.8602C4.02239 17.5977 4.09246 17.3414 4.21015 17.106C4.4521 16.6334 4.87042 16.275 5.37459 16.1084C5.87877 15.9419 6.42825 15.9805 6.90415 16.216C7.37615 16.4427 7.85481 16.6527 8.34015 16.846L11.1061 11.316C11.6045 10.3196 12.3705 9.48161 13.3182 8.89594C14.266 8.31027 15.358 8.00004 16.4721 8H31.5281ZM37.6681 21.808C34.2681 22.882 29.4301 24 24.0001 24C18.5701 24 13.7321 22.88 10.3321 21.808L8.21215 26.048C8.07276 26.3261 8.00017 26.6329 8.00015 26.944V32C8.00015 32.5304 8.21086 33.0391 8.58593 33.4142C8.96101 33.7893 9.46971 34 10.0001 34H38.0001C38.5306 34 39.0393 33.7893 39.4144 33.4142C39.7894 33.0391 40.0001 32.5304 40.0001 32V26.944C39.9998 26.6336 39.9272 26.3275 39.7881 26.05L37.6681 21.808ZM15.0001 26C15.7958 26 16.5589 26.3161 17.1215 26.8787C17.6841 27.4413 18.0001 28.2044 18.0001 29C18.0001 29.7956 17.6841 30.5587 17.1215 31.1213C16.5589 31.6839 15.7958 32 15.0001 32C14.2045 32 13.4414 31.6839 12.8788 31.1213C12.3162 30.5587 12.0001 29.7956 12.0001 29C12.0001 28.2044 12.3162 27.4413 12.8788 26.8787C13.4414 26.3161 14.2045 26 15.0001 26ZM33.0001 26C33.7958 26 34.5589 26.3161 35.1215 26.8787C35.6841 27.4413 36.0001 28.2044 36.0001 29C36.0001 29.7956 35.6841 30.5587 35.1215 31.1213C34.5589 31.6839 33.7958 32 33.0001 32C32.2045 32 31.4414 31.6839 30.8788 31.1213C30.3162 30.5587 30.0001 29.7956 30.0001 29C30.0001 28.2044 30.3162 27.4413 30.8788 26.8787C31.4414 26.3161 32.2045 26 33.0001 26ZM31.5281 12H16.4721C16.1008 12.0002 15.7369 12.1038 15.4211 12.2991C15.1053 12.4944 14.8501 12.7738 14.6841 13.106L12.1441 18.18C15.2401 19.11 19.4121 20 24.0001 20C28.5881 20 32.7601 19.11 35.8541 18.18L33.3161 13.106C33.1502 12.7738 32.895 12.4944 32.5792 12.2991C32.2634 12.1038 31.8995 12.0002 31.5281 12Z" fill="#26ACC4"/>
</svg>
