<svg width="48" height="48" viewBox="0 0 48 48" fill="none" xmlns="http://www.w3.org/2000/svg">
<path fill-rule="evenodd" clip-rule="evenodd" d="M6.4002 4.8002C6.4002 5.22454 6.23162 5.63151 5.93157 5.93157C5.63151 6.23162 5.22454 6.4002 4.8002 6.4002C4.37585 6.4002 3.96888 6.23162 3.66882 5.93157C3.36877 5.63151 3.2002 5.22454 3.2002 4.8002C3.2002 4.37585 3.36877 3.96888 3.66882 3.66882C3.96888 3.36877 4.37585 3.2002 4.8002 3.2002C5.22454 3.2002 5.63151 3.36877 5.93157 3.66882C6.23162 3.96888 6.4002 4.37585 6.4002 4.8002ZM6.4002 16.0002V32.0002H41.6002V16.0002H6.4002ZM6.4002 12.8002C5.5515 12.8002 4.73757 13.1373 4.13745 13.7375C3.53734 14.3376 3.2002 15.1515 3.2002 16.0002V32.0002C3.2002 32.8489 3.53734 33.6628 4.13745 34.2629C4.73757 34.8631 5.5515 35.2002 6.4002 35.2002H41.6002C42.4489 35.2002 43.2628 34.8631 43.8629 34.2629C44.4631 33.6628 44.8002 32.8489 44.8002 32.0002V16.0002C44.8002 15.1515 44.4631 14.3376 43.8629 13.7375C43.2628 13.1373 42.4489 12.8002 41.6002 12.8002H6.4002ZM4.8002 44.8002C5.22454 44.8002 5.63151 44.6316 5.93157 44.3316C6.23162 44.0315 6.4002 43.6245 6.4002 43.2002C6.4002 42.7759 6.23162 42.3689 5.93157 42.0688C5.63151 41.7688 5.22454 41.6002 4.8002 41.6002C4.37585 41.6002 3.96888 41.7688 3.66882 42.0688C3.36877 42.3689 3.2002 42.7759 3.2002 43.2002C3.2002 43.6245 3.36877 44.0315 3.66882 44.3316C3.96888 44.6316 4.37585 44.8002 4.8002 44.8002ZM12.8002 4.8002C12.8002 5.22454 12.6316 5.63151 12.3316 5.93157C12.0315 6.23162 11.6245 6.4002 11.2002 6.4002C10.7758 6.4002 10.3689 6.23162 10.0688 5.93157C9.76877 5.63151 9.6002 5.22454 9.6002 4.8002C9.6002 4.37585 9.76877 3.96888 10.0688 3.66882C10.3689 3.36877 10.7758 3.2002 11.2002 3.2002C11.6245 3.2002 12.0315 3.36877 12.3316 3.66882C12.6316 3.96888 12.8002 4.37585 12.8002 4.8002ZM11.2002 44.8002C11.6245 44.8002 12.0315 44.6316 12.3316 44.3316C12.6316 44.0315 12.8002 43.6245 12.8002 43.2002C12.8002 42.7759 12.6316 42.3689 12.3316 42.0688C12.0315 41.7688 11.6245 41.6002 11.2002 41.6002C10.7758 41.6002 10.3689 41.7688 10.0688 42.0688C9.76877 42.3689 9.6002 42.7759 9.6002 43.2002C9.6002 43.6245 9.76877 44.0315 10.0688 44.3316C10.3689 44.6316 10.7758 44.8002 11.2002 44.8002ZM19.2002 4.8002C19.2002 5.22454 19.0316 5.63151 18.7316 5.93157C18.4315 6.23162 18.0245 6.4002 17.6002 6.4002C17.1759 6.4002 16.7689 6.23162 16.4688 5.93157C16.1688 5.63151 16.0002 5.22454 16.0002 4.8002C16.0002 4.37585 16.1688 3.96888 16.4688 3.66882C16.7689 3.36877 17.1759 3.2002 17.6002 3.2002C18.0245 3.2002 18.4315 3.36877 18.7316 3.66882C19.0316 3.96888 19.2002 4.37585 19.2002 4.8002ZM17.6002 44.8002C18.0245 44.8002 18.4315 44.6316 18.7316 44.3316C19.0316 44.0315 19.2002 43.6245 19.2002 43.2002C19.2002 42.7759 19.0316 42.3689 18.7316 42.0688C18.4315 41.7688 18.0245 41.6002 17.6002 41.6002C17.1759 41.6002 16.7689 41.7688 16.4688 42.0688C16.1688 42.3689 16.0002 42.7759 16.0002 43.2002C16.0002 43.6245 16.1688 44.0315 16.4688 44.3316C16.7689 44.6316 17.1759 44.8002 17.6002 44.8002ZM25.6002 4.8002C25.6002 5.22454 25.4316 5.63151 25.1316 5.93157C24.8315 6.23162 24.4245 6.4002 24.0002 6.4002C23.5759 6.4002 23.1689 6.23162 22.8688 5.93157C22.5688 5.63151 22.4002 5.22454 22.4002 4.8002C22.4002 4.37585 22.5688 3.96888 22.8688 3.66882C23.1689 3.36877 23.5759 3.2002 24.0002 3.2002C24.4245 3.2002 24.8315 3.36877 25.1316 3.66882C25.4316 3.96888 25.6002 4.37585 25.6002 4.8002ZM24.0002 44.8002C24.4245 44.8002 24.8315 44.6316 25.1316 44.3316C25.4316 44.0315 25.6002 43.6245 25.6002 43.2002C25.6002 42.7759 25.4316 42.3689 25.1316 42.0688C24.8315 41.7688 24.4245 41.6002 24.0002 41.6002C23.5759 41.6002 23.1689 41.7688 22.8688 42.0688C22.5688 42.3689 22.4002 42.7759 22.4002 43.2002C22.4002 43.6245 22.5688 44.0315 22.8688 44.3316C23.1689 44.6316 23.5759 44.8002 24.0002 44.8002ZM32.0002 4.8002C32.0002 5.22454 31.8316 5.63151 31.5316 5.93157C31.2315 6.23162 30.8245 6.4002 30.4002 6.4002C29.9759 6.4002 29.5689 6.23162 29.2688 5.93157C28.9688 5.63151 28.8002 5.22454 28.8002 4.8002C28.8002 4.37585 28.9688 3.96888 29.2688 3.66882C29.5689 3.36877 29.9759 3.2002 30.4002 3.2002C30.8245 3.2002 31.2315 3.36877 31.5316 3.66882C31.8316 3.96888 32.0002 4.37585 32.0002 4.8002ZM30.4002 44.8002C30.8245 44.8002 31.2315 44.6316 31.5316 44.3316C31.8316 44.0315 32.0002 43.6245 32.0002 43.2002C32.0002 42.7759 31.8316 42.3689 31.5316 42.0688C31.2315 41.7688 30.8245 41.6002 30.4002 41.6002C29.9759 41.6002 29.5689 41.7688 29.2688 42.0688C28.9688 42.3689 28.8002 42.7759 28.8002 43.2002C28.8002 43.6245 28.9688 44.0315 29.2688 44.3316C29.5689 44.6316 29.9759 44.8002 30.4002 44.8002ZM38.4002 4.8002C38.4002 5.22454 38.2316 5.63151 37.9316 5.93157C37.6315 6.23162 37.2245 6.4002 36.8002 6.4002C36.3759 6.4002 35.9689 6.23162 35.6688 5.93157C35.3688 5.63151 35.2002 5.22454 35.2002 4.8002C35.2002 4.37585 35.3688 3.96888 35.6688 3.66882C35.9689 3.36877 36.3759 3.2002 36.8002 3.2002C37.2245 3.2002 37.6315 3.36877 37.9316 3.66882C38.2316 3.96888 38.4002 4.37585 38.4002 4.8002ZM36.8002 44.8002C37.2245 44.8002 37.6315 44.6316 37.9316 44.3316C38.2316 44.0315 38.4002 43.6245 38.4002 43.2002C38.4002 42.7759 38.2316 42.3689 37.9316 42.0688C37.6315 41.7688 37.2245 41.6002 36.8002 41.6002C36.3759 41.6002 35.9689 41.7688 35.6688 42.0688C35.3688 42.3689 35.2002 42.7759 35.2002 43.2002C35.2002 43.6245 35.3688 44.0315 35.6688 44.3316C35.9689 44.6316 36.3759 44.8002 36.8002 44.8002ZM44.8002 4.8002C44.8002 5.22454 44.6316 5.63151 44.3316 5.93157C44.0315 6.23162 43.6245 6.4002 43.2002 6.4002C42.7759 6.4002 42.3689 6.23162 42.0688 5.93157C41.7688 5.63151 41.6002 5.22454 41.6002 4.8002C41.6002 4.37585 41.7688 3.96888 42.0688 3.66882C42.3689 3.36877 42.7759 3.2002 43.2002 3.2002C43.6245 3.2002 44.0315 3.36877 44.3316 3.66882C44.6316 3.96888 44.8002 4.37585 44.8002 4.8002ZM43.2002 44.8002C43.6245 44.8002 44.0315 44.6316 44.3316 44.3316C44.6316 44.0315 44.8002 43.6245 44.8002 43.2002C44.8002 42.7759 44.6316 42.3689 44.3316 42.0688C44.0315 41.7688 43.6245 41.6002 43.2002 41.6002C42.7759 41.6002 42.3689 41.7688 42.0688 42.0688C41.7688 42.3689 41.6002 42.7759 41.6002 43.2002C41.6002 43.6245 41.7688 44.0315 42.0688 44.3316C42.3689 44.6316 42.7759 44.8002 43.2002 44.8002Z" fill="#26ACC4"/>
</svg>
