<svg width="48" height="48" viewBox="0 0 48 48" fill="none" xmlns="http://www.w3.org/2000/svg">
<path d="M11.112 36H36.888C38.7742 36 40.5832 35.2507 41.9169 33.9169C43.2507 32.5832 44 30.7742 44 28.888V24C44 22.9391 43.5786 21.9217 42.8284 21.1716C42.0783 20.4214 41.0609 20 40 20C38.9391 20 37.9217 20.4214 37.1716 21.1716C36.4214 21.9217 36 22.9391 36 24V26.4C36 26.8243 35.8314 27.2313 35.5314 27.5314C35.2313 27.8314 34.8243 28 34.4 28H13.6C13.1757 28 12.7687 27.8314 12.4686 27.5314C12.1686 27.2313 12 26.8243 12 26.4V24C12 22.9391 11.5786 21.9217 10.8284 21.1716C10.0783 20.4214 9.06087 20 8 20C6.93913 20 5.92172 20.4214 5.17157 21.1716C4.42143 21.9217 4 22.9391 4 24V28.888C4 30.7742 4.7493 32.5832 6.08306 33.9169C7.41682 35.2507 9.22578 36 11.112 36Z" stroke="#26ACC4" stroke-width="3"/>
<path d="M40 20C40 18.14 40 17.212 39.846 16.44C39.5374 14.888 38.7754 13.4624 37.6565 12.3435C36.5376 11.2246 35.112 10.4626 33.56 10.154C32.788 10 31.86 10 30 10H18C16.14 10 15.212 10 14.44 10.154C12.888 10.4626 11.4624 11.2246 10.3435 12.3435C9.22459 13.4624 8.46263 14.888 8.154 16.44C8 17.212 8 18.14 8 20" stroke="#26ACC4" stroke-width="3"/>
<path d="M40 38V36M8 38V36" stroke="#26ACC4" stroke-width="3" stroke-linecap="round"/>
</svg>
