<svg width="19" height="19" viewBox="0 0 19 19" fill="none" xmlns="http://www.w3.org/2000/svg">
<path d="M4.04 2.5C4.1 3.39 4.25 4.26 4.49 5.09L3.29 6.29C2.88 5.09 2.62 3.82 2.53 2.5H4.04ZM13.9 14.52C14.75 14.76 15.62 14.91 16.5 14.97V16.46C15.18 16.37 13.91 16.11 12.7 15.71L13.9 14.52ZM5 0.5H1.5C0.95 0.5 0.5 0.95 0.5 1.5C0.5 10.89 8.11 18.5 17.5 18.5C18.05 18.5 18.5 18.05 18.5 17.5V14.01C18.5 13.46 18.05 13.01 17.5 13.01C16.26 13.01 15.05 12.81 13.93 12.44C13.831 12.403 13.7256 12.386 13.62 12.39C13.36 12.39 13.11 12.49 12.91 12.68L10.71 14.88C7.87547 13.4303 5.56967 11.1245 4.12 8.29L6.32 6.09C6.6 5.81 6.68 5.42 6.57 5.07C6.19132 3.91789 5.9989 2.71274 6 1.5C6 0.95 5.55 0.5 5 0.5Z" fill="#CCCCCC"/>
</svg>
