<?xml version="1.0" encoding="UTF-8"?>
<svg id="Camada_1" data-name="Camada 1" xmlns="http://www.w3.org/2000/svg" viewBox="0 0 542.5 479.84">
  <defs>
    <style>
      .cls-1 {
        fill: #00213A;
      }
    </style>
  </defs>
  <g id="Camada_2" data-name="Camada 2">
    <path class="cls-1" d="M10.6,91.88h46.2c1.6,0,3.1.9,3.8,2.4l185.7,383.2c1.5,3,5.8,3.2,7.4.3l46.8-81.6c.7-1.2.7-2.6.2-3.8L170.5,97.78c-1.2-2.8.8-5.9,3.9-5.9h353.2c1.8,0,3.4-1.2,4-2.9l2-6c.9-2.7-1.1-5.5-4-5.5H10.6c-2.3,0-10.6-.5-10.6,1.8l1.9,7.9c-.8-.2,6.4,4.8,8.8,4.8h0l-.1-.1Z"/>
    <path class="cls-1" d="M268.2,3.38l-40.5,86.1c-.7,1.5-.7,3.3,0,4.9l131.1,282.2c1.8,3.8-1,8.1-5.2,8.1h-48.7c-3.8,0-6.5,3.6-5.5,7.3h0c.7,2.5,2.9,4.2,5.5,4.2h231.9c3.2,0,5.7-2.6,5.7-5.7v-1.2c0-3.2-2.6-5.8-5.8-5.7l-62.6,1.2c-2.2,0-4.2-1.2-5.2-3.2L278.5,3.18c-2.2-4.3-8.3-4.2-10.3.1h0v.1Z"/>
  </g>
  <g id="Camada_3" data-name="Camada 3">
    <path class="cls-1" d="M128.7,263.48l-4,13.4c-.1.2-.2.3-.3.5-3,6.5-3.9,6.6-9,16.2-5.4,10.1-33.6,51.3-56.7,76.9l-21.5,14.6-26.2.8c-1.2.4-2,1.5-2,2.8v4.6c0,1.6,1.3,2.8,2.8,2.8h178.5l-61.6-132.6h0Z"/>
    <path class="cls-1" d="M342,89.38c3.1,3.6,56,119.1,56,119.1l19.8-36.8c11.7-21.6,25.8-41.9,42.1-60.3l19.5-22"/>
  </g>
</svg>