<svg width="74" height="67" viewBox="0 0 74 67" fill="none" xmlns="http://www.w3.org/2000/svg">
<g clip-path="url(#clip0_57_227)">
<path d="M1.4459 12.8296H7.74783C7.96608 12.8296 8.17069 12.9552 8.26618 13.1647L33.5967 66.6709C33.8013 67.0898 34.3878 67.1177 34.6061 66.7127L40.9899 55.319C41.0853 55.1514 41.0854 54.9559 41.0171 54.7884L23.2571 13.6534C23.0935 13.2624 23.3663 12.8296 23.7891 12.8296H71.9676C72.2131 12.8296 72.4313 12.662 72.5132 12.4247L72.786 11.5869C72.9088 11.2099 72.6359 10.8189 72.2404 10.8189H1.4459C1.13217 10.8189 0 10.7491 0 11.0702L0.259171 12.1733C0.150046 12.1454 1.13217 12.8435 1.45954 12.8435L1.4459 12.8296Z" fill="white"/>
<path d="M36.584 0.472288L31.0595 12.4944C30.964 12.7039 30.964 12.9552 31.0595 13.1786L48.9423 52.5822C49.1878 53.1127 48.8059 53.7132 48.233 53.7132H41.59C41.0717 53.7132 40.7034 54.2158 40.8398 54.7325C40.9353 55.0815 41.2354 55.3189 41.59 55.3189H73.2225C73.659 55.3189 74 54.9559 74 54.523V54.3555C74 53.9086 73.6453 53.5456 73.2088 53.5596L64.6699 53.7271C64.3698 53.7271 64.0969 53.5596 63.9605 53.2803L37.9889 0.444362C37.6888 -0.156046 36.8568 -0.142083 36.584 0.458325V0.472288Z" fill="white"/>
<path d="M17.5554 36.7896L17.0098 38.6606C16.9961 38.6885 16.9825 38.7025 16.9689 38.7304C16.5596 39.638 16.4369 39.652 15.7412 40.9924C15.0046 42.4027 11.158 48.1554 8.00702 51.7299L5.0743 53.7685L1.50047 53.8802C1.33679 53.9361 1.22766 54.0897 1.22766 54.2712V54.9135C1.22766 55.1369 1.40499 55.3045 1.6096 55.3045H25.958L17.5554 36.7896Z" fill="white"/>
<path d="M46.6507 12.48C47.0736 12.9826 54.2894 29.1099 54.2894 29.1099L56.9902 23.9715C58.5862 20.9555 60.5095 18.121 62.7329 15.5518L65.3928 12.48" fill="white"/>
</g>
<defs>
<clipPath id="clip0_57_227">
<rect width="74" height="67" rx="2" fill="white"/>
</clipPath>
</defs>
</svg>
